Star Trek: The Motion Picture (1979)       

 
  Verenigde Staten
Science-Fiction
132 minuten / 136 minuten (director's cut)

geregisseerd door Robert Wise
met William Shatner, Leonard Nimoy en DeForest Kelley

Een buitenaards fenomeen van ongekende grootte komt op de Aarde af, alles op zijn weg vernietigend. Het enige schip in het bereik is de U.S.S. Enterprise. Terwijl kapitein Decker zijn schip klaarmaakt voor het gevaar arriveert de legendarische kapitein James T. Kirk met het bevel om de leiding over de Enterprise over te nemen. Het is echter al drie jaar geleden dat Kirk de Enterprise voor het laatst leidde... is de taak om de Aarde te redden wel aan hem besteed?

English

Storyline
An alien phenomenon of unprecedented size and power is approaching Earth, destroying everything in its path. The only starship in range is the U.S.S. Enterprise--still in drydock after a major overhaul. As Captain Decker readies his ship and his crew to face this menace, the legendary Admiral James T. Kirk arrives with orders to take command of the Enterprise and intercept the intruder. But it has been three years since Kirk last commanded the Enterprise on its historic five year mission...is he up to the task of saving the Earth? 



Spotinformatie 
Categorie : Beeld 
Formaat : x264HD 
Bron : Retail
 
Ondertitels : Nederlands (instelbaar)
 
Genre : Science Fiction

Format                           : Matroska
File size                        : 7.48 GiB
Duration                         : 2h 12mn
Overall bit rate                 : 8 113 Kbps
Movie name                       : Star Trek: The Motion Picture
Encoded date                     : UTC 2010-07-29 21:01:38
Writing application              : mkvmerge v4.1.1 ('Bouncin' Back') gemaakt op Jul  3 2010 22:54:08
Writing library                  : libebml v1.0.0 + libmatroska v1.0.0

Video
ID                               : 1
Format                           : AVC
Format/Info                      : Advanced Video Codec
Format profile                   : High@L4.1
Format settings, CABAC           : Yes
Format settings, ReFrames        : 3 frames
Format settings, GOP             : M=1, N=32
Muxing mode                      : Container profile=Unknown@0.0
Codec ID                         : V_MPEG4/ISO/AVC
Duration                         : 2h 12mn
Bit rate mode                    : Variable
Bit rate                         : 7 486 Kbps
Maximum bit rate                 : 24.0 Mbps
Width                            : 1 920 pixels
Height                           : 1 080 pixels
Display aspect ratio             : 16:9
Frame rate                       : 23.976 fps
Color space                      : YUV
Chroma subsampling               : 4:2:0
Bit depth                        : 8 bits
Scan type                        : Progressive
Bits/(Pixel*Frame)               : 0.151
Stream size                      : 6.74 GiB (90%)
Writing library                  : x264 core 104 r1683 62997d6
Encoding settings                : cabac=1 / ref=4 / deblock=1:-1:-1 / analyse=0x3:0x133 / me=umh / subme=10 / psy=1 / psy_rd=1.00:0.15 / mixed_ref=1 / me_range=24 / chroma_me=1 / trellis=2 / 8x8dct=1 / cqm=0 / deadzone=21,11 / fast_pskip=1 / chroma_qp_offset=-3 / threads=12 / sliced_threads=0 / slices=4 / nr=0 / decimate=1 / interlaced=0 / constrained_intra=0 / bframes=3 / b_pyramid=1 / b_adapt=2 / b_bias=0 / direct=3 / weightb=1 / open_gop=2 / weightp=2 / keyint=24 / keyint_min=2 / scenecut=40 / intra_refresh=0 / rc_lookahead=24 / rc=2pass / mbtree=1 / bitrate=7486 / ratetol=1.0 / qcomp=0.60 / qpmin=10 / qpmax=51 / qpstep=4 / cplxblur=20.0 / qblur=0.5 / vbv_maxrate=24000 / vbv_bufsize=24000 / ip_ratio=1.40 / aq=1:1.00 / nal_hrd=vbr
Color primaries                  : BT.709-5, BT.1361, IEC 61966-2-4, SMPTE RP177
Transfer characteristics         : BT.709-5, BT.1361
Matrix coefficients              : BT.709-5, BT.1361, IEC 61966-2-4 709, SMPTE RP177

Audio
ID                               : 2
Format                           : AC-3
Format/Info                      : Audio Coding 3
Mode extension                   : CM (complete main)
Muxing mode                      : Header stripping
Codec ID                         : A_AC3
Duration                         : 2h 12mn
Bit rate mode                    : Constant
Bit rate                         : 640 Kbps
Channel(s)                       : 6 channels
Channel positions                : Front: L C R, Side: L R, LFE
Sampling rate                    : 48.0 KHz
Bit depth                        : 16 bits
Stream size                      : 604 MiB (8%)
Language                         : English

Text
ID                               : 3
Format                           : UTF-8
Codec ID                         : S_TEXT/UTF8
Codec ID/Info                    : UTF-8 Plain Text
Language                         : Dutch

Menu
00:00:00.000                     : en:00:00:00.000
00:01:41.518                     : en:00:01:41.518
00:08:50.905                     : en:00:08:50.905
00:11:49.292                     : en:00:11:49.292
00:20:46.203                     : en:00:20:46.203
00:25:12.970                     : en:00:25:12.970
00:28:01.179                     : en:00:28:01.179
00:31:31.223                     : en:00:31:31.223
00:38:02.822                     : en:00:38:02.822
00:44:36.382                     : en:00:44:36.382
00:48:07.760                     : en:00:48:07.760
00:55:28.283                     : en:00:55:28.283
01:01:15.380                     : en:01:01:15.380
01:12:20.628                     : en:01:12:20.628
01:17:28.853                     : en:01:17:28.853
01:21:55.202                     : en:01:21:55.202
01:27:21.319                     : en:01:27:21.319
01:38:14.222                     : en:01:38:14.222
01:46:18.205                     : en:01:46:18.205
01:51:56.919                     : en:01:51:56.919
02:08:36.250                     : en:02:08:36.250
 
Weblink :  http://www.moviemeter.nl/film/3183
Weblink :  http://www.imdb.com/title/tt0079945 

*****************************************

Brought to you by 
2Lions Team

meer zien??
Kom dan eens kijken op ons Forum 
                          
http://www.2lions-site.nl  

2Lions the site to be for all your Dutch MOVIES and more

******************************************


DON T HIT AND RUN Niet gelijk afhaken als de FILM binnen is blijf seeden. 

Don`t quit after you finished the download, but keep seeding


There are fake torrents from uploaders who use our team name.
Those are not ours, or members from our team.
We 2Lions-Team are not responsible for the fake posts on our name

Wij 2Lions-Team zijn niet verantwoordelijk voor die zieke FAKE posten die op onze naam worden gedaan

Please check our site !!!
To the fakers Get a Live
 

 
 
